<?xml version="1.0" standalone="no"?>
<!DOCTYPE svg PUBLIC "-//W3C//DTD SVG 20010904//EN"
 "http://www.w3.org/TR/2001/REC-SVG-20010904/DTD/svg10.dtd">
<svg version="1.0" xmlns="http://www.w3.org/2000/svg"
 width="898.000000pt" height="1280.000000pt" viewBox="0 0 898.000000 1280.000000"
 preserveAspectRatio="xMidYMid meet">
<metadata>
Created by potrace 1.15, written by Peter Selinger 2001-2017
</metadata>
<g transform="translate(0.000000,1280.000000) scale(0.100000,-0.100000)"
fill="#000000" stroke="none">
<path d="M4095 11159 c-130 -31 -163 -49 -227 -118 -110 -120 -154 -211 -193
-409 -34 -170 -73 -244 -171 -329 -70 -61 -129 -174 -144 -279 -17 -110 9
-234 66 -324 46 -71 54 -179 19 -234 -8 -12 -26 -57 -41 -101 -37 -108 -40
-258 -7 -320 34 -65 131 -126 263 -165 91 -27 134 -58 162 -116 12 -24 20 -45
17 -47 -2 -1 -40 -17 -84 -35 -102 -41 -279 -147 -322 -192 -33 -34 -343 -478
-527 -755 -165 -248 -384 -617 -397 -668 -21 -86 -10 -117 110 -322 78 -132
142 -226 208 -305 132 -159 514 -590 522 -590 4 0 17 7 29 16 21 15 25 13 90
-45 38 -34 82 -63 99 -67 l30 -6 -19 -81 c-27 -117 -74 -398 -94 -572 -14
-112 -18 -225 -19 -445 0 -282 5 -350 36 -537 l11 -63 42 0 c22 0 47 -4 54 -9
9 -5 23 -67 37 -168 43 -292 98 -525 161 -685 l35 -89 -32 -36 c-41 -48 -86
-143 -94 -202 -17 -126 94 -756 202 -1140 l46 -165 -6 -155 c-7 -171 -15 -227
-81 -525 -74 -335 -74 -332 35 -402 86 -56 146 -83 182 -84 33 0 166 59 214
96 59 45 63 63 53 225 -10 157 -29 287 -91 622 l-40 219 25 356 c54 750 83
1291 93 1752 l6 305 94 0 93 0 0 -190 c0 -373 50 -1324 106 -2028 l14 -188
-49 -272 c-65 -354 -81 -475 -84 -626 l-2 -123 41 -37 c64 -57 169 -105 229
-106 44 0 63 8 148 58 53 32 102 67 108 79 21 39 12 118 -36 333 -63 282 -73
342 -86 519 l-11 151 41 140 c77 266 141 567 186 880 44 300 36 373 -56 494
l-41 54 30 76 c42 109 58 160 91 301 31 130 75 378 87 490 4 36 12 68 18 72 6
4 28 8 48 8 36 0 37 1 47 53 26 128 33 208 38 455 8 367 -16 628 -94 1017 -20
99 -35 191 -34 205 2 31 -25 181 -51 285 -68 275 -83 607 -47 1031 12 135 12
136 54 198 46 69 97 183 116 261 6 28 15 54 19 58 4 5 62 -31 128 -80 67 -48
167 -117 224 -153 130 -82 544 -290 576 -290 16 0 38 14 62 40 45 48 186 284
311 520 107 202 379 754 379 770 0 17 59 104 161 240 107 142 175 266 219 401
51 154 76 339 47 339 -10 0 -13 18 -13 67 1 61 -1 68 -22 79 -13 6 -29 17 -35
23 -6 6 -34 11 -63 11 -46 0 -56 -4 -92 -37 -22 -21 -107 -132 -188 -248 -80
-115 -156 -220 -168 -233 l-21 -24 -6 31 c-4 17 -2 52 2 78 5 26 6 61 3 79
-10 54 -88 111 -111 82 -6 -7 -13 -38 -17 -68 -3 -30 -16 -117 -28 -192 l-22
-136 42 -134 c46 -147 48 -158 30 -159 -7 0 -51 -59 -98 -132 -108 -167 -226
-336 -321 -458 -41 -52 -103 -136 -140 -186 l-65 -92 -47 37 c-25 20 -125 125
-222 232 -131 146 -190 220 -234 295 -32 55 -85 129 -117 164 -52 56 -73 71
-179 121 -66 31 -163 74 -215 95 -52 21 -99 42 -103 46 -14 11 28 83 69 119
52 46 124 76 224 95 82 15 87 17 143 73 73 72 107 138 107 206 -1 70 -28 124
-105 206 -73 78 -95 119 -95 180 0 53 20 91 91 169 71 79 111 157 117 226 7
85 -10 120 -103 210 l-82 80 -7 80 c-9 97 -33 198 -81 330 -45 124 -79 178
-161 254 -110 104 -248 155 -446 167 l-106 7 -77 -42 -78 -42 -31 30 c-67 65
-206 96 -311 70z m-442 -3892 c42 -62 46 -73 53 -154 11 -116 11 -492 1 -616
l-9 -97 -44 -32 c-24 -17 -44 -39 -44 -48 0 -25 -35 -54 -53 -43 -9 4 -54 43
-101 86 -96 88 -201 222 -294 376 -57 94 -61 104 -46 116 16 11 16 14 1 36
-10 13 -17 33 -17 45 0 15 78 113 221 279 l222 257 32 -69 c18 -39 53 -100 78
-136z"/>
</g>
</svg>
